<svg xmlns="http://www.w3.org/2000/svg" viewBox="0 0 215 40">
        <defs>
          <clipPath id="squareClip">
            <rect x="0" y="0" width="40" height="40" rx="15" />
          </clipPath>
        </defs>
        <g clip-path="url(#squareClip)">
          <rect x="0" y="0" width="40" height="40" fill="#E4DAFF" />
          <g transform="translate(20 20)">
            <g transform="scale(0.08)">
              <g transform="translate(-128 -128)">
                <path d="M101.85,191.14C97.34,201,82.29,224,40,224a8,8,0,0,1-8-8c0-42.29,23-57.34,32.86-61.85a8,8,0,0,1,6.64,14.56c-6.43,2.93-20.62,12.36-23.12,38.91,26.55-2.5,36-16.69,38.91-23.12a8,8,0,1,1,14.56,6.64Zm122-144a16,16,0,0,0-15-15c-12.58-.75-44.73.4-71.4,27.07h0L88,108.7A8,8,0,0,1,76.67,97.39l26.56-26.57A4,4,0,0,0,100.41,64H74.35A15.9,15.9,0,0,0,63,68.68L28.7,103a16,16,0,0,0,9.07,27.16l38.47,5.37,44.21,44.21,5.37,38.49a15.94,15.94,0,0,0,10.78,12.92,16.11,16.11,0,0,0,5.1.83A15.91,15.91,0,0,0,153,227.3L187.32,193A16,16,0,0,0,192,181.65V155.59a4,4,0,0,0-6.83-2.82l-26.57,26.56a8,8,0,0,1-11.71-.42,8.2,8.2,0,0,1,.6-11.1l49.27-49.27h0C223.45,91.86,224.6,59.71,223.85,47.12Z" fill="#342168"></path>
              </g>
            </g>
          </g>
        </g>
        <path fill="#342168" d="M49.34 29L46.61 29L46.61 12.20L49.34 12.20L49.34 29ZM56.26 29.29L56.26 29.29Q54.48 29.29 53.22 28.44Q51.96 27.58 51.28 26.17Q50.59 24.75 50.59 23L50.59 23Q50.59 21.27 51.28 19.87Q51.96 18.46 53.23 17.64Q54.50 16.81 56.26 16.81L56.26 16.81Q57.50 16.81 58.58 17.32Q59.66 17.84 60.34 18.82L60.34 18.82L60.34 12.20L63.07 12.20L63.07 29L60.41 29L60.34 27.20Q59.76 28.16 58.68 28.72Q57.60 29.29 56.26 29.29ZM56.86 26.91L56.86 26.91Q57.94 26.91 58.70 26.41Q59.47 25.90 59.90 25.03Q60.34 24.15 60.34 23.05L60.34 23.05Q60.34 21.78 59.84 20.91Q59.35 20.05 58.55 19.62Q57.74 19.18 56.83 19.18L56.83 19.18Q55.82 19.18 55.04 19.68Q54.26 20.17 53.82 21.02Q53.38 21.87 53.38 23.02L53.38 23.02Q53.38 24.15 53.83 25.03Q54.29 25.90 55.07 26.41Q55.85 26.91 56.86 26.91ZM69.98 29.29L69.98 29.29Q68.18 29.29 66.84 28.48Q65.50 27.68 64.74 26.28Q63.98 24.87 63.98 23.05L63.98 23.05Q63.98 21.15 64.74 19.76Q65.50 18.37 66.85 17.59Q68.21 16.81 70.01 16.81L70.01 16.81Q71.76 16.81 73.06 17.56Q74.35 18.32 75.10 19.64Q75.84 20.96 75.84 22.64L75.84 22.64Q75.84 22.98 75.83 23.24Q75.82 23.50 75.77 23.82L75.77 23.82L66.72 23.82Q66.79 24.75 67.20 25.48Q67.61 26.22 68.32 26.62Q69.02 27.03 69.94 27.03L69.94 27.03Q70.92 27.03 71.60 26.60Q72.29 26.17 72.67 25.35L72.67 25.35L75.53 25.35Q75.19 26.43 74.46 27.32Q73.73 28.21 72.61 28.75Q71.50 29.29 69.98 29.29ZM66.74 21.92L66.74 21.92L73.06 21.92Q73.03 20.60 72.12 19.83Q71.21 19.06 69.94 19.06L69.94 19.06Q68.78 19.06 67.86 19.76Q66.94 20.46 66.74 21.92ZM80.35 29.29L80.35 29.29Q79.25 29.29 78.30 28.87Q77.35 28.45 76.79 27.63Q76.22 26.82 76.22 25.69L76.22 25.69Q76.22 24.34 76.90 23.50Q77.57 22.66 78.72 22.27Q79.87 21.87 81.26 21.87L81.26 21.87L84.24 21.87Q84.24 20.91 83.93 20.30Q83.62 19.69 83.06 19.39Q82.51 19.09 81.77 19.09L81.77 19.09Q80.81 19.09 80.09 19.52Q79.37 19.95 79.20 20.94L79.20 20.94L76.46 20.94Q76.58 19.64 77.34 18.72Q78.10 17.79 79.27 17.30Q80.45 16.81 81.79 16.81L81.79 16.81Q83.52 16.81 84.66 17.44Q85.80 18.08 86.39 19.21Q86.98 20.34 86.98 21.82L86.98 21.82L86.98 25.45Q87.00 26.10 87.30 26.38Q87.60 26.67 88.25 26.70L88.25 26.70L88.25 29Q87.24 29 86.52 28.78Q85.80 28.57 85.33 28.14Q84.86 27.70 84.58 27.01L84.58 27.01Q84.00 27.97 82.88 28.63Q81.77 29.29 80.35 29.29ZM81.05 27.08L81.05 27.08Q81.98 27.08 82.69 26.64Q83.40 26.19 83.82 25.44Q84.24 24.68 84.24 23.77L84.24 23.77L84.24 23.70L81.46 23.70Q80.83 23.70 80.26 23.86Q79.68 24.03 79.34 24.40Q79.01 24.78 79.01 25.42L79.01 25.42Q79.01 26.29 79.61 26.68Q80.21 27.08 81.05 27.08ZM100.03 29L98.14 29Q96.31 29 95.35 28.11Q94.39 27.22 94.39 25.28L94.39 25.28L94.39 19.38L92.69 19.38L92.69 17.10L94.39 17.10L94.39 14.22L97.13 14.22L97.13 17.10L100.03 17.10L100.03 19.38L97.13 19.38L97.13 25.30Q97.13 26.12 97.51 26.42Q97.90 26.72 98.66 26.72L98.66 26.72L100.03 26.72L100.03 29ZM106.37 29.29L106.37 29.29Q104.62 29.29 103.22 28.52Q101.83 27.75 101.03 26.35Q100.22 24.94 100.22 23.05L100.22 23.05Q100.22 21.10 101.06 19.71Q101.90 18.32 103.32 17.56Q104.74 16.81 106.46 16.81L106.46 16.81Q108.22 16.81 109.62 17.56Q111.02 18.32 111.85 19.71Q112.68 21.10 112.68 23.05L112.68 23.05Q112.68 24.85 111.88 26.26Q111.07 27.68 109.64 28.48Q108.22 29.29 106.37 29.29ZM106.39 26.94L106.39 26.94Q107.42 26.94 108.20 26.42Q108.98 25.90 109.44 25.02Q109.90 24.13 109.90 23L109.90 23Q109.90 21.82 109.44 20.96Q108.98 20.10 108.20 19.63Q107.42 19.16 106.42 19.16L106.42 19.16Q105.36 19.16 104.58 19.66Q103.80 20.17 103.39 21.04Q102.98 21.92 102.98 23.05L102.98 23.05Q102.98 24.27 103.45 25.15Q103.92 26.02 104.70 26.48Q105.48 26.94 106.39 26.94ZM121.27 29L118.54 29L118.54 12.20L121.75 12.20L126.89 23.31L131.93 12.20L135.17 12.20L135.17 29L132.43 29L132.43 17.07L127.92 26.77L125.78 26.77L121.27 17.07L121.27 29ZM145.42 29L142.13 29L135.94 12.20L138.84 12.20L143.78 26.19L148.75 12.20L151.63 12.20L145.42 29ZM155.11 29L152.38 29L152.38 12.20L158.38 12.20Q160.13 12.20 161.45 12.76Q162.77 13.33 163.51 14.43Q164.26 15.54 164.26 17.14L164.26 17.14Q164.26 18.75 163.50 19.87Q162.74 20.98 161.42 21.55Q160.10 22.11 158.38 22.11L158.38 22.11L155.11 22.11L155.11 29ZM155.11 14.50L155.11 19.78L158.30 19.78Q160.06 19.78 160.76 19.08Q161.47 18.37 161.47 17.14L161.47 17.14Q161.47 15.94 160.76 15.22Q160.06 14.50 158.30 14.50L158.30 14.50L155.11 14.50Z"/>
      </svg>